<svg xmlns="http://www.w3.org/2000/svg" viewBox="0 0 64 64" role="img" aria-label="STACKWERKHAUS">
  <style>
    .mark {
      fill: #050505;
    }

    @media (prefers-color-scheme: dark) {
      .mark {
        fill: #f7f2ea;
      }
    }
  </style>
  <path
    class="mark"
    d="M33.6 3.8 60.2 30.4a2.2 2.2 0 0 1 0 3.2L33.6 60.2a2.2 2.2 0 0 1-3.2 0l-9.2-9.2 8.9-8.9 2.1 2.1 12.3-12.3-12.3-12.3-22 22a2.2 2.2 0 0 1-3.1 0L3.8 37.4a2.2 2.2 0 0 1 0-3.1L30.4 3.8a2.2 2.2 0 0 1 3.2 0Z"
  />
  <path
    class="mark"
    d="M20.2 16.8 29 8l13.6 13.6-8.8 8.8-2.2-2.2-9.1 9.1 9.2 9.2-8.9 8.9L9.3 41.9a2 2 0 0 1 0-2.8l10.9-10.9a8 8 0 0 1 0-11.4Z"
    opacity=".72"
  />
</svg>
